<?xml version="1.0" encoding="UTF-8"?>
<svg width="32px" height="32px" viewBox="0 0 32 32" version="1.1" xmlns="http://www.w3.org/2000/svg" xmlns:xlink="http://www.w3.org/1999/xlink">
    <!-- Generator: Sketch 55.2 (78181) - https://sketchapp.com -->
    <title>Combined Shape 2</title>
    <desc>Created with Sketch.</desc>
    <g id="Symbols" stroke="none" stroke-width="1" fill="none" fill-rule="evenodd">
        <g id="account-32px">
            <g id="Combined-Shape-2">
                <path d="M17.6980702,32 L-8.70414851e-14,32 C-8.70414851e-14,31.3581538 -8.70414851e-14,30.0830769 -8.70414851e-14,28.1747692 C-8.70414851e-14,25.3123077 1.13110345,22.9446154 3.79841379,21.9790769 C6.12376242,21.137325 9.16039276,21.0191189 17.1436099,21.0026451 C16.4124105,22.5021332 16,24.2006114 16,26 C16,28.2135779 16.6241218,30.2744429 17.6980702,32 Z" id="Combined-Shape" fill="#000000"></path>
                <circle id="Oval" fill="#000000" cx="15" cy="8" r="8"></circle>
                <polygon id="Path" fill="#F4CA34" points="26 19 27.854 22.9500559 32 23.583295 29 26.6580141 29.708 31 26 28.9504502 22.292 31 23 26.6580141 20 23.583295 24.146 22.9500559"></polygon>
            </g>
        </g>
    </g>
</svg>