<?xml version="1.0" encoding="UTF-8"?>
<svg width="16px" height="16px" viewBox="0 0 16 16" version="1.1" xmlns="http://www.w3.org/2000/svg" xmlns:xlink="http://www.w3.org/1999/xlink">
    <g id="caution-16px" stroke="none" stroke-width="1" fill="none" fill-rule="evenodd">
        <g id="t-warning" transform="translate(0.000000, 1.000000)" fill="#F4CA34" fill-rule="nonzero">
            <path d="M15.216,12.529 L8.882,0.654 C8.506,-0.052 7.494,-0.052 7.117,0.654 L0.784,12.529 C0.429,13.195 0.912,14 1.667,14 L14.334,14 C15.088,14 15.571,13.195 15.216,12.529 Z" id="Shape"></path>
        </g>
        <path d="M8,13 C7.448,13 7,12.552 7,12 C7,11.448 7.448,11 8,11 C8.552,11 9,11.448 9,12 C9,12.552 8.552,13 8,13 Z" id="Path" fill="#000000"></path>
        <polygon id="Path" fill="#000000" points="9 10 7 10 7 6 9 6"></polygon>
    </g>
</svg>