<?xml version="1.0" encoding="UTF-8"?>
<svg width="373px" height="33px" viewBox="0 0 373 33" version="1.1" xmlns="http://www.w3.org/2000/svg" xmlns:xlink="http://www.w3.org/1999/xlink">
    <g id="Symbols" stroke="none" stroke-width="1" fill="none" fill-rule="evenodd">
        <g id="Footer" transform="translate(-532.000000, -216.000000)" fill="#000000">
            <g transform="translate(0.000000, 126.000000)" id="Combined-Shape">
                <g transform="translate(208.000000, 90.000000)">
                    <path d="M370.0554,16.7279652 C370.0554,9.32448696 369.094228,6.60883478 366.430719,6.60883478 C363.76721,6.60883478 362.806038,9.32448696 362.806038,16.7279652 C362.806038,24.480487 363.898279,26.8017043 366.430719,26.8017043 C369.008409,26.8017043 370.0554,24.480487 370.0554,16.7279652 Z M355.339788,16.7279652 C355.339788,7.04553043 357.872228,0.565530435 366.430719,0.565530435 C374.98921,0.565530435 377.52165,7.04553043 377.52165,16.7279652 C377.52165,26.7578783 374.421245,32.8027478 366.430719,32.8027478 C358.440193,32.8027478 355.339788,26.7578783 355.339788,16.7279652 Z M342.597413,0.959808696 L351.63493,0.959808696 L351.63493,32.4081565 L345.173542,32.4081565 L345.173542,12.8726783 L345.086163,12.8726783 L340.893516,32.4081565 L335.828637,32.4081565 L331.550172,12.8726783 L331.462792,12.8726783 L331.462792,32.4081565 L324.999844,32.4081565 L324.999844,0.959808696 L334.301059,0.959808696 L338.275258,19.1366783 L338.361077,19.1366783 L342.597413,0.959808696 Z M386.423392,32.4075304 L379.21772,0.959182609 L387.120866,0.959182609 L390.616039,21.7640522 L390.701858,21.7640522 L394.544987,0.959182609 L402.360754,0.959182609 L394.980323,32.4075304 L386.423392,32.4075304 Z M406.245233,32.4075304 L406.245233,0.959182609 L413.580414,0.959182609 L413.580414,32.4075304 L406.245233,32.4075304 Z M419.120861,32.4075304 L419.120861,0.959182609 L436.71687,0.959182609 L436.71687,7.30926957 L426.412353,7.30926957 L426.412353,13.1788348 L434.140741,13.1788348 L434.140741,19.3551826 L426.412353,19.3551826 L426.412353,26.0574435 L437.110077,26.0574435 L437.110077,32.4075304 L419.120861,32.4075304 Z M451.207455,14.9761739 C452.822412,14.9761739 454.264171,13.9666087 454.264171,10.9457391 C454.264171,8.31773913 452.953481,7.30973913 451.163766,7.30973913 L448.762395,7.30973913 L448.762395,14.9761739 L451.207455,14.9761739 Z M441.470903,32.408 L441.470903,0.959652174 L450.814248,0.959652174 C458.1073,0.959652174 461.77411,4.06817391 461.77411,10.9457391 C461.77411,17.6026087 457.801472,21.1509565 450.989007,21.1509565 L448.762395,21.1509565 L448.762395,32.408 L441.470903,32.408 Z M479.757372,16.7279652 C479.757372,9.32448696 478.797759,6.60883478 476.134251,6.60883478 C473.470742,6.60883478 472.508009,9.32448696 472.508009,16.7279652 C472.508009,24.480487 473.601811,26.8017043 476.134251,26.8017043 C478.71038,26.8017043 479.757372,24.480487 479.757372,16.7279652 Z M465.041759,16.7279652 C465.041759,7.04553043 467.574199,0.565530435 476.134251,0.565530435 C484.691182,0.565530435 487.223622,7.04553043 487.223622,16.7279652 C487.223622,26.7578783 484.124777,32.8027478 476.134251,32.8027478 C468.143725,32.8027478 465.041759,26.7578783 465.041759,16.7279652 Z M502.85045,9.84946087 C502.326174,7.92424348 501.365002,6.38876522 499.487907,6.38876522 C498.047709,6.38876522 497.130226,7.22146087 497.130226,8.53624348 C497.130226,14.0990261 509.617666,13.3539826 509.617666,23.8659826 C509.617666,29.5618087 505.645028,32.8018087 499.487907,32.8018087 C493.505545,32.8018087 490.536209,30.1299826 489.532907,24.2604174 L496.256433,22.9910261 C496.56226,25.4437217 497.565562,26.9322435 499.793734,26.9322435 C501.408691,26.9322435 502.630441,26.101113 502.630441,24.3918957 C502.630441,18.5661565 490.099312,19.3550261 490.099312,8.7992 C490.099312,3.8938087 493.636614,0.564591304 499.356838,0.564591304 C505.29395,0.564591304 507.915329,3.58546087 509.09495,8.53624348 L502.85045,9.84946087 Z M517.606787,32.4075304 L517.606787,7.30926957 L511.711804,7.30926957 L511.711804,0.959182609 L530.793261,0.959182609 L530.793261,7.30926957 L524.898278,7.30926957 L524.898278,32.4075304 L517.606787,32.4075304 Z M535.459603,32.4075304 L535.459603,0.959182609 L553.055612,0.959182609 L553.055612,7.30926957 L542.751095,7.30926957 L542.751095,13.1788348 L550.481043,13.1788348 L550.481043,19.3551826 L542.751095,19.3551826 L542.751095,26.0574435 L553.448819,26.0574435 L553.448819,32.4075304 L535.459603,32.4075304 Z M566.935166,14.7133739 C568.812261,14.7133739 570.385089,13.9667652 570.385089,10.8144174 C570.385089,6.95928696 568.376925,7.09076522 567.109925,7.09076522 L565.100201,7.09076522 L565.100201,14.7133739 L566.935166,14.7133739 Z M571.082563,32.4081565 L567.677891,20.6252 L565.100201,20.6252 L565.100201,32.4081565 L557.808709,32.4081565 L557.808709,0.959808696 L567.415753,0.959808696 C574.270347,0.959808696 577.851339,3.54241739 577.851339,10.0693739 C577.851339,13.8806783 576.367451,16.2895478 574.097149,17.6904174 L579.030959,32.4081565 L571.082563,32.4081565 Z M595.271184,9.84946087 C594.746909,7.92424348 593.787297,6.38876522 591.908641,6.38876522 C590.468443,6.38876522 589.55096,7.22146087 589.55096,8.53624348 C589.55096,14.0990261 602.03996,13.3539826 602.03996,23.8659826 C602.03996,29.5618087 598.065762,32.8018087 591.908641,32.8018087 C585.92784,32.8018087 582.956943,30.1299826 581.953641,24.2604174 L588.677167,22.9910261 C588.982995,25.4437217 589.987857,26.9322435 592.214469,26.9322435 C593.829426,26.9322435 595.052736,26.101113 595.052736,24.3918957 C595.052736,18.5661565 582.520047,19.3550261 582.520047,8.7992 C582.520047,3.8938087 586.057348,0.564591304 591.777572,0.564591304 C597.716245,0.564591304 600.336064,3.58546087 601.515684,8.53624348 L595.271184,9.84946087 Z M607.665759,32.4090957 L607.665759,25.1386609 L614.652983,25.1386609 L614.652983,32.4090957 L607.665759,32.4090957 Z M640.282427,22.0716174 C639.146496,29.2544 635.915022,32.8011826 629.846841,32.8011826 C621.900004,32.8011826 619.147556,26.5825739 619.147556,16.4650087 C619.147556,7.8797913 621.854754,0.565530435 630.021599,0.565530435 C636.876194,0.565530435 639.364944,4.5944 639.976599,10.9898783 L633.251513,11.6472696 C632.816177,8.4917913 631.811315,6.82796522 630.107418,6.82796522 C627.793427,6.82796522 626.615366,9.28066087 626.615366,16.4650087 C626.615366,24.6119652 627.706047,26.6264 630.063728,26.6264 C631.767625,26.6264 632.903556,24.7434435 633.426272,21.1935304 L640.282427,22.0716174 Z M659.095323,16.7279652 C659.095323,9.32448696 658.134151,6.60883478 655.470642,6.60883478 C652.807134,6.60883478 651.845961,9.32448696 651.845961,16.7279652 C651.845961,24.480487 652.938203,26.8017043 655.470642,26.8017043 C658.046772,26.8017043 659.095323,24.480487 659.095323,16.7279652 Z M644.378151,16.7279652 C644.378151,7.04553043 646.910591,0.565530435 655.470642,0.565530435 C664.029134,0.565530435 666.561573,7.04553043 666.561573,16.7279652 C666.561573,26.7578783 663.461168,32.8027478 655.470642,32.8027478 C647.480116,32.8027478 644.378151,26.7578783 644.378151,16.7279652 Z M690.439817,32.4075304 L690.439817,12.8736174 L690.352438,12.8736174 L686.161352,32.4075304 L681.096472,32.4075304 L676.816447,12.8736174 L676.729067,12.8736174 L676.729067,32.4075304 L670.266119,32.4075304 L670.266119,0.959182609 L679.567334,0.959182609 L683.539972,19.1360522 L683.628912,19.1360522 L687.863688,0.959182609 L696.902766,0.959182609 L696.902766,32.4075304 L690.439817,32.4075304 Z"></path>
                </g>
            </g>
        </g>
    </g>
</svg>